<svg xmlns="http://www.w3.org/2000/svg" xmlns:xlink="http://www.w3.org/1999/xlink" xmlns:lucid="lucid" width="1826.97" height="935.87"><g transform="translate(0 0)" lucid:page-tab-id="OBuoeeigN0GM"><path d="M128 95c17.67 0 32 17.9 32 40s-14.33 40-32 40H32c-17.67 0-32-17.9-32-40s14.33-40 32-40z" stroke="#9e66e4" stroke-width="2" fill="#bb86fc"/><use xlink:href="#a" transform="matrix(1,0,0,1,10,105) translate(34.654320987654316 36.22222222222222)"/><path d="M162.5 135h75.88" stroke="#03dac6" stroke-width="3" fill="none"/><path d="M162.54 136.5h-1.63l.1-1.5-.05-1.5h1.6z" stroke="#03dac6" stroke-width=".05" fill="#03dac6"/><path d="M254.15 135l-14.27 4.63v-9.26z" stroke="#03dac6" stroke-width="3" fill="#03dac6"/><path d="M415.18 3.87a7.1 7.1 0 0 1 9.16 0l150.6 127.26a5.07 5.07 0 0 1 0 7.74l-150.6 127.26a7.1 7.1 0 0 1-9.16 0l-150.6-127.26a5.07 5.07 0 0 1 0-7.74z" stroke="#9e66e4" stroke-width="2" fill="#cc4e00"/><use xlink:href="#b" transform="matrix(1,0,0,1,270,10) translate(9.481481481481467 131.22222222222223)"/><use xlink:href="#c" transform="matrix(1,0,0,1,270,10) translate(44.04938271604937 131.22222222222223)"/><use xlink:href="#d" transform="matrix(1,0,0,1,270,10) translate(99.18518518518519 131.22222222222223)"/><use xlink:href="#e" transform="matrix(1,0,0,1,270,10) translate(180.24691358024694 131.22222222222223)"/><path d="M835.18 3.87a7.1 7.1 0 0 1 9.16 0l150.6 127.26a5.07 5.07 0 0 1 0 7.74l-150.6 127.26a7.1 7.1 0 0 1-9.16 0l-150.6-127.26a5.07 5.07 0 0 1 0-7.74z" stroke="#9e66e4" stroke-width="2" fill="#cc4e00"/><use xlink:href="#b" transform="matrix(1,0,0,1,690,10) translate(14.580246913580254 131.22222222222223)"/><use xlink:href="#f" transform="matrix(1,0,0,1,690,10) translate(49.14814814814816 131.22222222222223)"/><use xlink:href="#g" transform="matrix(1,0,0,1,690,10) translate(123.46913580246914 131.22222222222223)"/><path d="M1295.18 3.87a7.1 7.1 0 0 1 9.16 0l150.6 127.26a5.07 5.07 0 0 1 0 7.74l-150.6 127.26a7.1 7.1 0 0 1-9.16 0l-150.6-127.26a5.07 5.07 0 0 1 0-7.74z" stroke="#9e66e4" stroke-width="2" fill="#cc4e00"/><use xlink:href="#b" transform="matrix(1,0,0,1,1150,10) translate(68.93827160493825 112.55555555555554)"/><use xlink:href="#c" transform="matrix(1,0,0,1,1150,10) translate(103.50617283950615 112.55555555555554)"/><use xlink:href="#h" transform="matrix(1,0,0,1,1150,10) translate(158.64197530864197 112.55555555555554)"/><use xlink:href="#i" transform="matrix(1,0,0,1,1150,10) translate(80.95061728395062 149.88888888888889)"/><path d="M1752 64c26.5 0 48 33.8 48 75.5s-21.5 75.5-48 75.5h-144c-26.5 0-48-33.8-48-75.5s21.5-75.5 48-75.5z" stroke="#9e66e4" stroke-width="2" fill="#bb86fc"/><use xlink:href="#j" transform="matrix(1,0,0,1,1570,74) translate(16.75308641975309 34.388888888888886)"/><use xlink:href="#k" transform="matrix(1,0,0,1,1570,74) translate(89.25925925925927 34.388888888888886)"/><use xlink:href="#l" transform="matrix(1,0,0,1,1570,74) translate(106.54320987654322 34.388888888888886)"/><use xlink:href="#m" transform="matrix(1,0,0,1,1570,74) translate(180.8641975308642 34.388888888888886)"/><use xlink:href="#n" transform="matrix(1,0,0,1,1570,74) translate(53.956790123456784 71.72222222222223)"/><use xlink:href="#o" transform="matrix(1,0,0,1,1570,74) translate(38.40123456790123 109.05555555555557)"/><path d="M580.74 135h74.07" stroke="#7ab648" stroke-width="6" fill="none"/><path d="M580.82 138h-3.88l.44-.93.27-1.02.1-1.05-.1-1.05-.27-1.02-.44-.93h3.88z" stroke="#7ab648" stroke-width=".05" fill="#7ab648"/><path d="M672.07 135l-14.26 4.63v-9.26z" stroke="#7ab648" stroke-width="6" fill="#7ab648"/><use xlink:href="#p" transform="matrix(1,0,0,1,592.1635925851889,93.66666666666664) translate(0 24.888888888888893)"/><path d="M1000.74 135h114.07" stroke="#7ab648" stroke-width="6" fill="none"/><path d="M1000.82 138h-3.88l.44-.93.27-1.02.1-1.05-.1-1.05-.27-1.02-.44-.93h3.88z" stroke="#7ab648" stroke-width=".05" fill="#7ab648"/><path d="M1132.07 135l-14.26 4.63v-9.26z" stroke="#7ab648" stroke-width="6" fill="#7ab648"/><use xlink:href="#p" transform="matrix(1,0,0,1,1033.2034055488734,93.66666666666664) translate(0 24.888888888888893)"/><path d="M1460.74 135h71.43" stroke="#7ab648" stroke-width="6" fill="none"/><path d="M1460.82 138h-3.88l.44-.93.27-1.02.1-1.05-.1-1.05-.27-1.02-.44-.93h3.88z" stroke="#7ab648" stroke-width=".05" fill="#7ab648"/><path d="M1549.44 135l-14.27 4.63v-9.26z" stroke="#7ab648" stroke-width="6" fill="#7ab648"/><use xlink:href="#p" transform="matrix(1,0,0,1,1474.2432185125576,93.66666666666664) translate(0 24.888888888888893)"/><path d="M491.76 411.84c26.5 0 48 33.8 48 75.5s-21.5 75.5-48 75.5h-144c-26.5 0-48-33.8-48-75.5s21.5-75.5 48-75.5z" stroke="#9e66e4" stroke-width="2" fill="#bb86fc"/><use xlink:href="#j" transform="matrix(1,0,0,1,309.7606535097003,421.8364533949555) translate(16.75308641975309 34.388888888888886)"/><use xlink:href="#k" transform="matrix(1,0,0,1,309.7606535097003,421.8364533949555) translate(89.25925925925927 34.388888888888886)"/><use xlink:href="#l" transform="matrix(1,0,0,1,309.7606535097003,421.8364533949555) translate(106.54320987654322 34.388888888888886)"/><use xlink:href="#m" transform="matrix(1,0,0,1,309.7606535097003,421.8364533949555) translate(180.8641975308642 34.388888888888886)"/><use xlink:href="#n" transform="matrix(1,0,0,1,309.7606535097003,421.8364533949555) translate(53.956790123456784 71.72222222222223)"/><use xlink:href="#o" transform="matrix(1,0,0,1,309.7606535097003,421.8364533949555) translate(38.40123456790123 109.05555555555557)"/><path d="M419.76 271.8v112.06" stroke="#c92d39" stroke-width="6" fill="none"/><path d="M417.52 268.5l1.1.23 1.14.08 1.13-.07 1.1-.24.76-.3v3.68h-6v-3.67z" stroke="#c92d39" stroke-width=".05" fill="#c92d39"/><path d="M419.76 401.13l-4.63-14.27h9.27z" stroke="#c92d39" stroke-width="6" fill="#c92d39"/><use xlink:href="#q" transform="matrix(1,0,0,1,427.7606535061808,321.1549878538935) translate(0 24.888888888888893)"/><path d="M835.18 356.2a7.1 7.1 0 0 1 9.16 0l150.6 127.26a5.07 5.07 0 0 1 0 7.75l-150.6 127.26a7.1 7.1 0 0 1-9.16 0L684.58 491.2a5.07 5.07 0 0 1 0-7.74z" stroke="#9e66e4" stroke-width="2" fill="#cc4e00"/><use xlink:href="#b" transform="matrix(1,0,0,1,690,362.3364533949555) translate(14.580246913580254 131.22222222222223)"/><use xlink:href="#f" transform="matrix(1,0,0,1,690,362.3364533949555) translate(49.14814814814816 131.22222222222223)"/><use xlink:href="#g" transform="matrix(1,0,0,1,690,362.3364533949555) translate(123.46913580246914 131.22222222222223)"/><path d="M1295.18 356.2a7.1 7.1 0 0 1 9.16 0l150.6 127.26a5.07 5.07 0 0 1 0 7.75l-150.6 127.26a7.1 7.1 0 0 1-9.16 0l-150.6-127.25a5.07 5.07 0 0 1 0-7.74z" stroke="#9e66e4" stroke-width="2" fill="#cc4e00"/><use xlink:href="#b" transform="matrix(1,0,0,1,1150,362.3364533949555) translate(14.580246913580254 131.22222222222223)"/><use xlink:href="#f" transform="matrix(1,0,0,1,1150,362.3364533949555) translate(49.14814814814816 131.22222222222223)"/><use xlink:href="#g" transform="matrix(1,0,0,1,1150,362.3364533949555) translate(123.46913580246914 131.22222222222223)"/><path d="M912 755c26.5 0 48 33.8 48 75.5S938.5 906 912 906H768c-26.5 0-48-33.8-48-75.5s21.5-75.5 48-75.5z" stroke="#9e66e4" stroke-width="2" fill="#bb86fc"/><use xlink:href="#j" transform="matrix(1,0,0,1,730,765) translate(16.75308641975309 34.388888888888886)"/><use xlink:href="#k" transform="matrix(1,0,0,1,730,765) translate(89.25925925925927 34.388888888888886)"/><use xlink:href="#l" transform="matrix(1,0,0,1,730,765) translate(106.54320987654322 34.388888888888886)"/><use xlink:href="#m" transform="matrix(1,0,0,1,730,765) translate(180.8641975308642 34.388888888888886)"/><use xlink:href="#n" transform="matrix(1,0,0,1,730,765) translate(53.956790123456784 71.72222222222223)"/><use xlink:href="#o" transform="matrix(1,0,0,1,730,765) translate(38.40123456790123 109.05555555555557)"/><path d="M1752 411.84c26.5 0 48 33.8 48 75.5s-21.5 75.5-48 75.5h-144c-26.5 0-48-33.8-48-75.5s21.5-75.5 48-75.5z" stroke="#9e66e4" stroke-width="2" fill="#bb86fc"/><g><use xlink:href="#j" transform="matrix(1,0,0,1,1570,421.8364533949555) translate(16.75308641975309 34.388888888888886)"/><use xlink:href="#k" transform="matrix(1,0,0,1,1570,421.8364533949555) translate(89.25925925925927 34.388888888888886)"/><use xlink:href="#l" transform="matrix(1,0,0,1,1570,421.8364533949555) translate(106.54320987654322 34.388888888888886)"/><use xlink:href="#m" transform="matrix(1,0,0,1,1570,421.8364533949555) translate(180.8641975308642 34.388888888888886)"/><use xlink:href="#n" transform="matrix(1,0,0,1,1570,421.8364533949555) translate(53.956790123456784 71.72222222222223)"/><use xlink:href="#o" transform="matrix(1,0,0,1,1570,421.8364533949555) translate(38.40123456790123 109.05555555555557)"/></g><path d="M839.76 271.8v54.76" stroke="#c92d39" stroke-width="6" fill="none"/><path d="M837.52 268.5l1.1.23 1.14.08 1.13-.07 1.1-.24.76-.3v3.68h-6v-3.67z" stroke="#c92d39" stroke-width=".05" fill="#c92d39"/><path d="M839.76 343.82l-4.63-14.26h9.27z" stroke="#c92d39" stroke-width="6" fill="#c92d39"/><g><use xlink:href="#q" transform="matrix(1,0,0,1,847.7606535061809,287.2229891515945) translate(0 24.888888888888893)"/></g><path d="M678.78 487.34H567.74" stroke="#7ab648" stroke-width="6" fill="none"/><path d="M682.14 485.27l-.27 1.02-.1 1.04.1 1.05.27 1 .44.94h-3.88v-6h3.88z" stroke="#7ab648" stroke-width=".05" fill="#7ab648"/><path d="M550.47 487.34l14.26-4.64v9.27z" stroke="#7ab648" stroke-width="6" fill="#7ab648"/><g><use xlink:href="#p" transform="matrix(1,0,0,1,574.7232349622908,446.0031200616222) translate(0 24.888888888888893)"/></g><path d="M839.76 624.14v102.9" stroke="#c92d39" stroke-width="6" fill="none"/><path d="M837.52 620.83l1.1.23 1.14.08 1.13-.08 1.1-.23.76-.28v3.67h-6v-3.67z" stroke="#c92d39" stroke-width=".05" fill="#c92d39"/><path d="M839.76 744.3l-4.63-14.27h9.27z" stroke="#c92d39" stroke-width="6" fill="#c92d39"/><g><use xlink:href="#q" transform="matrix(1,0,0,1,847.7606535061809,668.9049878538937) translate(0 24.888888888888893)"/></g><path d="M1460.74 487.34h71.3" stroke="#7ab648" stroke-width="6" fill="none"/><path d="M1460.82 490.34h-3.88l.44-.93.27-1 .1-1.06-.1-1.05-.27-1.03-.44-.93h3.88z" stroke="#7ab648" stroke-width=".05" fill="#7ab648"/><path d="M1549.3 487.34l-14.27 4.63v-9.27z" stroke="#7ab648" stroke-width="6" fill="#7ab648"/><g><use xlink:href="#p" transform="matrix(1,0,0,1,1481.2771882868665,441.367865145998) translate(0 24.888888888888893)"/></g><path d="M1299.76 624.14V824.5a6 6 0 0 1-6 6h-305.8" stroke="#c92d39" stroke-width="6" fill="none"/><path d="M1297.52 620.83l1.1.23 1.14.08 1.13-.08 1.1-.23.76-.28v3.67h-6v-3.67z" stroke="#c92d39" stroke-width=".05" fill="#c92d39"/><path d="M970.7 830.5l14.27-4.63v9.26z" stroke="#c92d39" stroke-width="6" fill="#c92d39"/><g><use xlink:href="#q" transform="matrix(1,0,0,1,1107.0375281045865,789.1666666666667) translate(0 24.888888888888893)"/></g><path d="M1299.76 271.8v54.76" stroke="#c92d39" stroke-width="6" fill="none"/><path d="M1297.52 268.5l1.1.23 1.14.08 1.13-.07 1.1-.24.76-.3v3.68h-6v-3.67z" stroke="#c92d39" stroke-width=".05" fill="#c92d39"/><path d="M1299.76 343.82l-4.63-14.26h9.27z" stroke="#c92d39" stroke-width="6" fill="#c92d39"/><g><use xlink:href="#q" transform="matrix(1,0,0,1,1312.395908421805,292.50156003124545) translate(0 24.888888888888893)"/></g><defs><path fill="#fff" d="M178-136c88 48 22 151-73 140C49-3 12-15 4-64l51-9c1 50 111 53 115 3-16-63-132-20-133-112 0-93 190-91 199-10l-50 12c-4-41-93-50-97-4 7 38 59 32 89 48" id="r"/><path fill="#fff" d="M72-63c-8 23 5 39 32 30L98-1C54 14 12-6 23-64l18-93H15l7-33h28l24-45h31l-8 45h35l-6 33H90" id="s"/><path fill="#fff" d="M166-52c-4 17 5 29 24 23l-3 27c-30 11-74 1-67-34C105-15 91 4 56 4 23 4 3-15 2-49c0-64 63-67 128-67 10-22 3-53-29-45-13 3-22 10-25 24l-46-5c5-64 156-77 153 0-1 33-11 60-17 90zM97-88c-44-9-64 57-19 57 31 0 42-28 47-57H97" id="t"/><path fill="#fff" d="M84-151c13-25 34-51 72-40l-8 41C67-170 71-64 56 0H6l36-190h47" id="u"/><g id="a"><use transform="matrix(0.08641975308641976,0,0,0.08641975308641976,0,0)" xlink:href="#r"/><use transform="matrix(0.08641975308641976,0,0,0.08641975308641976,20.740740740740744,0)" xlink:href="#s"/><use transform="matrix(0.08641975308641976,0,0,0.08641975308641976,31.024691358024693,0)" xlink:href="#t"/><use transform="matrix(0.08641975308641976,0,0,0.08641975308641976,48.308641975308646,0)" xlink:href="#u"/><use transform="matrix(0.08641975308641976,0,0,0.08641975308641976,60.40740740740741,0)" xlink:href="#s"/></g><path fill="#fff" d="M6 0l48-248h52L58 0H6" id="v"/><path fill="#fff" d="M144-137c-1-29-70-35-71-2 16 41 103 10 103 80C176 9 79 16 32-9 18-17 9-31 4-48l44-6c3 32 80 36 82 1-15-42-103-11-103-82 0-77 157-79 161-8" id="w"/><g id="b"><use transform="matrix(0.08641975308641976,0,0,0.08641975308641976,0,0)" xlink:href="#v"/><use transform="matrix(0.08641975308641976,0,0,0.08641975308641976,8.641975308641976,0)" xlink:href="#w"/></g><path fill="#fff" d="M150-105c8-23 8-54-22-51-68 7-54 98-72 156H6l50-261h50L85-158c15-20 33-36 66-36 95 0 34 128 28 194h-49" id="x"/><path fill="#fff" d="M114-194c63-2 87 48 72 110H63c-3 28 1 55 31 54 21-1 32-13 37-29l44 13C160-14 137 4 91 4 41 4 11-22 11-73c0-71 33-119 103-121zm30 77c14-47-50-61-67-22-3 6-6 13-8 22h75" id="y"/><g id="c"><use transform="matrix(0.08641975308641976,0,0,0.08641975308641976,0,0)" xlink:href="#s"/><use transform="matrix(0.08641975308641976,0,0,0.08641975308641976,10.283950617283951,0)" xlink:href="#x"/><use transform="matrix(0.08641975308641976,0,0,0.08641975308641976,29.20987654320988,0)" xlink:href="#y"/></g><path fill="#fff" d="M156-122c2-23-7-37-28-37-47 0-58 44-58 89 0 24 12 40 36 40 43 0 47-49 50-92zM-8 75l50-265h48c0 10-3 24-3 30 22-50 127-45 121 29-6 73-21 135-92 135-29 0-46-14-55-35L41 75H-8" id="z"/><path fill="#fff" d="M45-171c29-32 103-29 114 14 2-11 5-23 8-33h47L176-2c-3 70-92 96-155 64C9 56 1 42-1 25l50-5c2 28 48 27 63 11 13-13 20-45 21-66-13 20-30 35-62 36-87 3-60-134-26-172zM94-35c41-3 55-43 55-86 0-24-12-39-35-39-43 0-51 48-51 90 0 22 9 37 31 35" id="A"/><g id="d"><use transform="matrix(0.08641975308641976,0,0,0.08641975308641976,0,0)" xlink:href="#z"/><use transform="matrix(0.08641975308641976,0,0,0.08641975308641976,18.925925925925927,0)" xlink:href="#t"/><use transform="matrix(0.08641975308641976,0,0,0.08641975308641976,36.20987654320988,0)" xlink:href="#A"/><use transform="matrix(0.08641975308641976,0,0,0.08641975308641976,55.13580246913581,0)" xlink:href="#y"/></g><path fill="#fff" d="M69 3c-96 0-34-126-28-193h49L65-57c6 42 62 18 71-6 14-38 17-86 28-127h50L178 0h-47c0-11 4-26 3-33-14 20-30 37-65 36" id="B"/><path fill="#fff" d="M87-160c15-17 32-34 63-34 99 1 59 172-1 192-36 12-78 0-87-29L54 0H6l52-261h49zm71 38c0-24-5-37-29-37-46 0-55 46-57 89-1 25 12 40 35 40 44 0 51-50 51-92" id="C"/><path fill="#fff" d="M6 0l51-261h49L55 0H6" id="D"/><path fill="#fff" d="M50-224l7-37h49l-7 37H50zM6 0l37-190h49L55 0H6" id="E"/><path fill="#fff" d="M67-101c-8 29-7 73 27 71 23-2 32-16 39-37l48 9C170-19 141 4 91 4 36 4 7-28 12-86c6-75 61-124 140-103 26 7 40 29 43 59l-50 4c-1-20-9-34-29-34-35 0-41 29-49 59" id="F"/><path fill="#fff" d="M163-185c-5-40-82-31-84 8l-47-7c13-42 43-68 99-67 46 1 82 17 82 62 0 69-80 60-96 114H70c8-55 68-59 91-98 1-4 2-7 2-12zM54 0l9-47h51l-9 47H54" id="G"/><g id="e"><use transform="matrix(0.08641975308641976,0,0,0.08641975308641976,0,0)" xlink:href="#z"/><use transform="matrix(0.08641975308641976,0,0,0.08641975308641976,18.925925925925927,0)" xlink:href="#B"/><use transform="matrix(0.08641975308641976,0,0,0.08641975308641976,37.851851851851855,0)" xlink:href="#C"/><use transform="matrix(0.08641975308641976,0,0,0.08641975308641976,56.777777777777786,0)" xlink:href="#D"/><use transform="matrix(0.08641975308641976,0,0,0.08641975308641976,65.41975308641976,0)" xlink:href="#E"/><use transform="matrix(0.08641975308641976,0,0,0.08641975308641976,74.06172839506173,0)" xlink:href="#F"/><use transform="matrix(0.08641975308641976,0,0,0.08641975308641976,91.34567901234568,0)" xlink:href="#G"/></g><path fill="#fff" d="M6 0l48-248h195l-8 40H98l-12 63h132l-7 40H79L66-40h150l-8 40H6" id="H"/><path fill="#fff" d="M18-101c0-91 52-150 145-150 68 0 111 34 111 101C274-54 221 4 128 4 59 4 18-33 18-101zm202-32c4-46-15-77-59-77-65 0-88 46-91 108-2 41 22 65 60 65 60 0 84-40 90-96" id="I"/><g id="f"><use transform="matrix(0.08641975308641976,0,0,0.08641975308641976,0,0)" xlink:href="#r"/><use transform="matrix(0.08641975308641976,0,0,0.08641975308641976,20.740740740740744,0)" xlink:href="#H"/><use transform="matrix(0.08641975308641976,0,0,0.08641975308641976,41.48148148148149,0)" xlink:href="#I"/></g><path fill="#fff" d="M255-194c90 0 29 129 24 194h-49l25-136c-7-39-53-14-60 9-12 38-18 85-28 127h-49l25-136c2-29-39-23-50-7C69-108 68-47 56 0H6l36-190h48c-1 10-6 24-4 32 12-20 27-36 57-36s46 15 50 41c14-21 29-41 62-41" id="J"/><path fill="#fff" d="M124-194c51 0 84 22 84 74C207-44 167 4 94 4 43 4 11-23 11-74c0-74 41-120 113-120zM99-30c46 0 58-42 58-86 0-27-11-44-37-44-44 0-55 40-57 84-1 27 10 45 36 46" id="K"/><path fill="#fff" d="M151-194c95 0 34 128 28 194h-49l25-134c0-29-45-25-59-9C67-111 69-48 56 0H6l36-190h47l-4 32c15-20 33-36 66-36" id="L"/><g id="g"><use transform="matrix(0.08641975308641976,0,0,0.08641975308641976,0,0)" xlink:href="#E"/><use transform="matrix(0.08641975308641976,0,0,0.08641975308641976,8.641975308641976,0)" xlink:href="#J"/><use transform="matrix(0.08641975308641976,0,0,0.08641975308641976,36.2962962962963,0)" xlink:href="#z"/><use transform="matrix(0.08641975308641976,0,0,0.08641975308641976,55.22222222222223,0)" xlink:href="#K"/><use transform="matrix(0.08641975308641976,0,0,0.08641975308641976,74.14814814814815,0)" xlink:href="#u"/><use transform="matrix(0.08641975308641976,0,0,0.08641975308641976,86.24691358024691,0)" xlink:href="#s"/><use transform="matrix(0.08641975308641976,0,0,0.08641975308641976,96.53086419753086,0)" xlink:href="#t"/><use transform="matrix(0.08641975308641976,0,0,0.08641975308641976,113.81481481481481,0)" xlink:href="#L"/><use transform="matrix(0.08641975308641976,0,0,0.08641975308641976,132.74074074074073,0)" xlink:href="#s"/><use transform="matrix(0.08641975308641976,0,0,0.08641975308641976,143.02469135802468,0)" xlink:href="#G"/></g><g id="h"><use transform="matrix(0.08641975308641976,0,0,0.08641975308641976,0,0)" xlink:href="#z"/><use transform="matrix(0.08641975308641976,0,0,0.08641975308641976,18.925925925925927,0)" xlink:href="#t"/><use transform="matrix(0.08641975308641976,0,0,0.08641975308641976,36.20987654320988,0)" xlink:href="#A"/><use transform="matrix(0.08641975308641976,0,0,0.08641975308641976,55.13580246913581,0)" xlink:href="#y"/></g><g id="i"><use transform="matrix(0.08641975308641976,0,0,0.08641975308641976,0,0)" xlink:href="#u"/><use transform="matrix(0.08641975308641976,0,0,0.08641975308641976,12.098765432098766,0)" xlink:href="#y"/><use transform="matrix(0.08641975308641976,0,0,0.08641975308641976,29.38271604938272,0)" xlink:href="#t"/><use transform="matrix(0.08641975308641976,0,0,0.08641975308641976,46.66666666666667,0)" xlink:href="#D"/><use transform="matrix(0.08641975308641976,0,0,0.08641975308641976,55.308641975308646,0)" xlink:href="#s"/><use transform="matrix(0.08641975308641976,0,0,0.08641975308641976,65.5925925925926,0)" xlink:href="#E"/><use transform="matrix(0.08641975308641976,0,0,0.08641975308641976,74.23456790123457,0)" xlink:href="#J"/><use transform="matrix(0.08641975308641976,0,0,0.08641975308641976,101.88888888888889,0)" xlink:href="#y"/><use transform="matrix(0.08641975308641976,0,0,0.08641975308641976,119.17283950617283,0)" xlink:href="#G"/></g><path fill="#fff" d="M258-177c0 46-32 67-71 75L235 0h-57l-41-94H76L58 0H6l48-248c89 2 204-19 204 71zm-53 3c0-46-63-30-107-33l-14 73c51-2 120 13 121-40" id="M"/><g id="j"><use transform="matrix(0.08641975308641976,0,0,0.08641975308641976,0,0)" xlink:href="#r"/><use transform="matrix(0.08641975308641976,0,0,0.08641975308641976,20.740740740740744,0)" xlink:href="#r"/><use transform="matrix(0.08641975308641976,0,0,0.08641975308641976,41.48148148148149,0)" xlink:href="#M"/></g><path fill="#fff" d="M-13 7L90-261h42L29 7h-42" id="N"/><use transform="matrix(0.08641975308641976,0,0,0.08641975308641976,0,0)" xlink:href="#N" id="k"/><path fill="#fff" d="M70-104c-4 71 81 81 132 50l8-40h-60l7-37h108L246-31C216-10 181 3 130 3 60 2 18-32 18-102c-1-106 79-169 188-144 33 8 53 31 63 63l-50 14c-6-26-25-42-56-42-62 0-89 43-93 107" id="O"/><g id="l"><use transform="matrix(0.08641975308641976,0,0,0.08641975308641976,0,0)" xlink:href="#r"/><use transform="matrix(0.08641975308641976,0,0,0.08641975308641976,20.740740740740744,0)" xlink:href="#r"/><use transform="matrix(0.08641975308641976,0,0,0.08641975308641976,41.48148148148149,0)" xlink:href="#O"/></g><path fill="#fff" d="M152-18C113 18 3 14 9-62c4-49 39-65 74-81-18-56 8-109 70-106 34 2 59 13 59 45 0 48-46 60-83 76 9 21 16 43 31 59 17-18 29-41 41-65l33 15c-12 28-30 52-49 73 11 11 33 14 52 9l-7 35c-28 9-62 1-78-16zm-60-93c-44 5-56 92 6 80 12-2 21-7 29-13-15-19-27-43-35-67zm58-108c-31-2-39 34-29 61 22-10 49-14 51-43 0-12-10-18-22-18" id="P"/><use transform="matrix(0.08641975308641976,0,0,0.08641975308641976,0,0)" xlink:href="#P" id="m"/><path fill="#fff" d="M100 10C77 47 50 87-15 72l7-35c37 9 51-18 65-41L20-190h51L89-44l73-146h53" id="Q"/><path fill="#fff" d="M132-28C118-9 101 4 69 4 30 4 10-23 10-62c0-70 24-129 92-132 31-1 47 14 56 35l19-102h49L179 0h-49zM62-69c0 22 7 39 29 39 45-2 54-45 57-90 2-27-10-40-33-40-44 0-53 48-53 91" id="R"/><g id="n"><use transform="matrix(0.08641975308641976,0,0,0.08641975308641976,0,0)" xlink:href="#x"/><use transform="matrix(0.08641975308641976,0,0,0.08641975308641976,18.925925925925927,0)" xlink:href="#Q"/><use transform="matrix(0.08641975308641976,0,0,0.08641975308641976,36.20987654320988,0)" xlink:href="#R"/><use transform="matrix(0.08641975308641976,0,0,0.08641975308641976,55.13580246913581,0)" xlink:href="#u"/><use transform="matrix(0.08641975308641976,0,0,0.08641975308641976,67.23456790123458,0)" xlink:href="#t"/><use transform="matrix(0.08641975308641976,0,0,0.08641975308641976,84.51851851851853,0)" xlink:href="#s"/><use transform="matrix(0.08641975308641976,0,0,0.08641975308641976,94.80246913580248,0)" xlink:href="#y"/></g><g id="o"><use transform="matrix(0.08641975308641976,0,0,0.08641975308641976,0,0)" xlink:href="#F"/><use transform="matrix(0.08641975308641976,0,0,0.08641975308641976,17.283950617283953,0)" xlink:href="#D"/><use transform="matrix(0.08641975308641976,0,0,0.08641975308641976,25.925925925925927,0)" xlink:href="#E"/><use transform="matrix(0.08641975308641976,0,0,0.08641975308641976,34.567901234567906,0)" xlink:href="#y"/><use transform="matrix(0.08641975308641976,0,0,0.08641975308641976,51.851851851851855,0)" xlink:href="#L"/><use transform="matrix(0.08641975308641976,0,0,0.08641975308641976,70.77777777777779,0)" xlink:href="#s"/><use transform="matrix(0.08641975308641976,0,0,0.08641975308641976,81.06172839506173,0)" xlink:href="#w"/><use transform="matrix(0.08641975308641976,0,0,0.08641975308641976,98.34567901234568,0)" xlink:href="#E"/><use transform="matrix(0.08641975308641976,0,0,0.08641975308641976,106.98765432098766,0)" xlink:href="#R"/><use transform="matrix(0.08641975308641976,0,0,0.08641975308641976,125.91358024691357,0)" xlink:href="#y"/></g><path fill="#fff" d="M147-102L127 0H76l19-102-65-146h52l45 107 83-107h57" id="S"/><g id="p"><use transform="matrix(0.08641975308641976,0,0,0.08641975308641976,0,0)" xlink:href="#S"/><use transform="matrix(0.08641975308641976,0,0,0.08641975308641976,19.61728395061729,0)" xlink:href="#y"/><use transform="matrix(0.08641975308641976,0,0,0.08641975308641976,36.90123456790124,0)" xlink:href="#w"/></g><path fill="#fff" d="M155 0L90-199 52 0H6l48-248h62l66 201 38-201h46L218 0h-63" id="T"/><g id="q"><use transform="matrix(0.08641975308641976,0,0,0.08641975308641976,0,0)" xlink:href="#T"/><use transform="matrix(0.08641975308641976,0,0,0.08641975308641976,22.38271604938272,0)" xlink:href="#K"/></g></defs></g></svg>